<svg width="776" height="498" viewBox="0 0 776 498" fill="none" xmlns="http://www.w3.org/2000/svg">
<g clip-path="url(#clip0_70_256)">
<path d="M37.6831 485.597C51.7154 498.259 69.9003 498.895 87.4779 497.339C89.9323 497.122 92.3695 496.868 94.784 496.593C94.7986 496.588 94.8177 496.59 94.8325 496.585C94.9486 496.572 95.0649 496.558 95.1759 496.549C95.6742 496.491 96.1728 496.433 96.6665 496.374L96.5499 496.653L96.1839 497.518C96.3154 497.228 96.4469 496.945 96.5784 496.655C96.6171 496.568 96.6605 496.482 96.699 496.395C101.253 486.47 105.769 476.18 106.921 464.846C108.112 453.082 104.765 439.762 96.4993 433.98C95.4152 433.224 94.2672 432.622 93.0766 432.185C92.5822 431.996 92.0812 431.844 91.5745 431.709C88.4744 430.847 85.247 431.034 82.224 432.252C79.201 433.47 76.4916 435.675 74.3743 438.639C72.2571 441.604 70.8084 445.221 70.1773 449.119C69.5461 453.017 69.7553 457.056 70.7833 460.819C63.7753 451.818 65.0826 437.217 67.5 425.013C69.9221 412.81 72.8542 399.231 67.928 388.27C65.1895 382.169 60.3738 378.384 54.9694 376.859C54.8036 376.815 54.638 376.77 54.4719 376.731C48.0327 375.097 41.3385 376.567 35.7264 380.845C25.3927 389.002 20.0852 404.467 18.3626 419.616C15.5871 443.993 21.7292 471.2 37.6831 485.597Z" fill="#F2F2F2"/>
<path d="M42.2136 446.519C42.6209 451.896 43.6522 457.17 45.2748 462.174C46.7701 466.603 48.7856 470.727 51.2545 474.408C56.3873 481.933 62.8878 487.804 70.2091 491.527C75.7468 494.368 81.549 496.321 87.4778 497.339C89.9322 497.122 92.3694 496.868 94.7839 496.593C94.7985 496.588 94.8176 496.59 94.8324 496.585C94.9485 496.572 95.0648 496.558 95.1758 496.55C95.6742 496.491 96.1727 496.433 96.6664 496.374L96.5498 496.653L96.1838 497.518C96.3153 497.228 96.4468 496.945 96.5783 496.655C96.617 496.568 96.6604 496.482 96.6989 496.395C92.2541 490.848 88.9356 484.048 87.0213 476.563C85.107 469.079 84.6527 461.129 85.6965 453.38C86.7888 445.685 89.3175 438.423 93.0764 432.185C92.5821 431.997 92.0811 431.844 91.5743 431.709C90.1458 434.155 88.8927 436.755 87.8297 439.477C84.0155 449.187 82.7986 460.178 84.3593 470.821C85.8101 480.453 89.4247 489.366 94.7787 496.514C94.3099 496.473 93.8365 496.425 93.3733 496.372C84.5991 495.441 75.8428 493.079 67.8845 488.239C61.0819 484.203 55.1761 478.133 50.6872 470.565C45.8674 462.239 43.7435 452.224 43.3787 442.045C43.0979 431.079 44.0156 420.116 46.1062 409.461C48.1336 398.597 51.2147 388.084 55.281 378.157C55.3719 377.932 55.3903 377.672 55.3322 377.43C55.2742 377.189 55.1443 376.984 54.9693 376.859C54.8234 376.736 54.6446 376.69 54.4718 376.731C54.3872 376.759 54.3088 376.811 54.2423 376.882C54.1759 376.953 54.1232 377.042 54.0881 377.143C53.5864 378.369 53.0941 379.596 52.6206 380.837C48.6764 391.172 45.7727 402.082 43.976 413.314C42.2318 424.15 41.3009 435.485 42.2136 446.519Z" fill="white"/>
<path d="M745.876 477.793C724.704 496.898 697.266 497.857 670.745 495.51C667.042 495.183 663.365 494.799 659.721 494.385C659.699 494.377 659.671 494.38 659.648 494.373C659.473 494.352 659.298 494.331 659.13 494.319C658.378 494.231 657.626 494.142 656.881 494.054L657.057 494.474L657.609 495.779C657.411 495.343 657.212 494.915 657.014 494.478C656.956 494.347 656.89 494.217 656.832 494.085C649.962 479.11 643.147 463.584 641.409 446.484C639.612 428.735 644.662 408.637 657.133 399.913C658.769 398.772 660.501 397.863 662.298 397.204C663.044 396.92 663.8 396.69 664.564 396.486C669.242 395.185 674.111 395.468 678.672 397.306C683.233 399.143 687.321 402.47 690.516 406.943C693.711 411.415 695.896 416.873 696.849 422.755C697.801 428.636 697.485 434.73 695.934 440.408C706.508 426.827 704.536 404.796 700.888 386.383C697.234 367.971 692.81 347.483 700.242 330.945C704.374 321.74 711.64 316.029 719.795 313.728C720.045 313.66 720.295 313.593 720.545 313.534C730.261 311.069 740.361 313.286 748.829 319.742C764.42 332.048 772.429 355.382 775.028 378.239C779.215 415.021 769.948 456.071 745.876 477.793Z" fill="#F2F2F2"/>
<path d="M739.041 418.831C738.426 426.944 736.87 434.902 734.422 442.453C732.166 449.135 729.125 455.356 725.399 460.912C717.79 472.377 707.728 480.998 696.8 486.741C688.445 491.028 679.69 493.974 670.745 495.51C667.042 495.183 663.365 494.799 659.721 494.385C659.699 494.378 659.671 494.38 659.648 494.373C659.473 494.352 659.298 494.331 659.13 494.319C658.378 494.231 657.626 494.143 656.881 494.054L657.057 494.474L657.609 495.779C657.411 495.343 657.212 494.915 657.014 494.478C656.956 494.347 656.89 494.217 656.832 494.085C663.538 485.716 668.546 475.456 671.434 464.163C674.322 452.871 675.008 440.876 673.433 429.184C671.785 417.574 667.969 406.616 662.298 397.204C663.044 396.92 663.8 396.69 664.564 396.486C666.72 400.177 668.61 404.099 670.214 408.207C675.969 422.858 677.805 439.44 675.45 455.5C673.261 470.032 667.807 483.48 659.729 494.266C660.437 494.203 661.151 494.131 661.85 494.051C675.088 492.647 688.3 489.082 700.308 481.78C710.572 475.69 719.483 466.532 726.255 455.112C733.528 442.55 736.732 427.439 737.283 412.081C737.866 395.639 736.163 378.908 733.167 362.918C730.108 346.526 725.459 330.664 719.324 315.686C719.187 315.347 719.159 314.954 719.247 314.589C719.334 314.225 719.53 313.916 719.794 313.728C720.015 313.542 720.284 313.473 720.545 313.534C720.673 313.577 720.791 313.655 720.891 313.762C720.992 313.87 721.071 314.004 721.124 314.156C721.881 316.006 722.624 317.857 723.338 319.73C729.289 335.324 733.67 351.784 736.381 368.731C739.013 385.08 740.418 402.183 739.041 418.831Z" fill="white"/>
<path d="M546.914 290.911H230.319C229.656 290.909 229.02 290.578 228.551 289.991C228.082 289.404 227.818 288.607 227.816 287.777V3.13529C227.817 2.30443 228.081 1.5081 228.55 0.920529C229.019 0.332956 229.655 0.00197612 230.318 0H546.913C547.577 0.00189383 548.212 0.332693 548.681 0.920061C549.15 1.50743 549.415 2.30357 549.416 3.13435V287.776C549.415 288.607 549.151 289.403 548.682 289.99C548.213 290.578 547.578 290.909 546.914 290.911V290.911ZM230.32 1.91559C230.061 1.91639 229.814 2.04526 229.631 2.27401C229.449 2.50275 229.346 2.81276 229.345 3.13622V287.776C229.346 288.099 229.449 288.409 229.632 288.637C229.814 288.866 230.062 288.995 230.32 288.995H546.913C547.171 288.994 547.419 288.865 547.601 288.637C547.784 288.408 547.886 288.098 547.887 287.775V3.13529C547.886 2.81198 547.783 2.5022 547.601 2.27366C547.418 2.04511 547.171 1.91638 546.913 1.91559H230.32Z" fill="#3F3D56"/>
<path d="M529.433 24.4465V226.728C529.433 227.396 529.328 228.059 529.124 228.676C528.92 229.294 528.62 229.855 528.243 230.328C527.866 230.801 527.418 231.176 526.925 231.432C526.432 231.689 525.903 231.82 525.369 231.821H251.218C251.023 231.823 250.828 231.804 250.636 231.764C249.669 231.589 248.784 230.984 248.144 230.059C247.505 229.134 247.152 227.952 247.152 226.728V24.4465C247.152 23.0963 247.58 21.8012 248.342 20.8461C249.104 19.8911 250.138 19.3543 251.216 19.3538H525.367C525.901 19.3536 526.429 19.4851 526.922 19.7407C527.416 19.9963 527.864 20.3712 528.241 20.8437C528.619 21.3163 528.918 21.8774 529.123 22.495C529.327 23.1126 529.432 23.7746 529.433 24.4432V24.4465Z" fill="#F2F2F2"/>
<path d="M316.258 139.626C335.958 139.626 351.928 119.623 351.928 94.9474C351.928 70.2719 335.958 50.2685 316.258 50.2685C296.558 50.2685 280.588 70.2719 280.588 94.9474C280.588 119.623 296.558 139.626 316.258 139.626Z" fill="#FF6584"/>
<path d="M428.116 232.632H253.128C252.909 232.635 252.69 232.613 252.474 232.567L335.236 53.0078C335.741 51.8896 336.474 50.9593 337.36 50.312C338.246 49.6647 339.253 49.3237 340.279 49.3237C341.305 49.3237 342.312 49.6647 343.198 50.312C344.084 50.9593 344.817 51.8896 345.323 53.0078L400.866 173.506L403.527 179.272L428.116 232.632Z" fill="#3F3D56"/>
<path opacity="0.2" d="M428.116 232.632H368.371L397.699 179.272L399.811 175.428L400.866 173.506L403.527 179.272L428.116 232.632Z" fill="black"/>
<path d="M525.548 232.632H374.198L403.527 179.272L405.637 175.428L443.855 105.889C446.361 101.332 452.388 101.048 455.334 105.03C455.532 105.301 455.716 105.588 455.884 105.889L525.548 232.632Z" fill="#3F3D56"/>
<path d="M237.999 285.86C240.681 285.86 242.855 283.137 242.855 279.778C242.855 276.419 240.681 273.696 237.999 273.696C235.317 273.696 233.143 276.419 233.143 279.778C233.143 283.137 235.317 285.86 237.999 285.86Z" fill="#6C63FF"/>
<path d="M237.999 17.677C240.681 17.677 242.855 14.954 242.855 11.595C242.855 8.23592 240.681 5.51288 237.999 5.51288C235.317 5.51288 233.143 8.23592 233.143 11.595C233.143 14.954 235.317 17.677 237.999 17.677Z" fill="#6C63FF"/>
<path d="M540.046 17.677C542.728 17.677 544.902 14.954 544.902 11.595C544.902 8.23592 542.728 5.51288 540.046 5.51288C537.364 5.51288 535.19 8.23592 535.19 11.595C535.19 14.954 537.364 17.677 540.046 17.677Z" fill="#6C63FF"/>
<path d="M540.046 285.86C542.728 285.86 544.902 283.137 544.902 279.778C544.902 276.419 542.728 273.696 540.046 273.696C537.364 273.696 535.19 276.419 535.19 279.778C535.19 283.137 537.364 285.86 540.046 285.86Z" fill="#6C63FF"/>
<path d="M168.824 485.378H178.199L182.659 440.086L168.823 440.086L168.824 485.378Z" fill="#A0616A"/>
<path d="M196.28 496.28L166.816 496.282L166.815 482.023L184.895 482.022C187.915 482.022 190.81 483.524 192.945 486.198C195.08 488.872 196.279 492.499 196.28 496.28V496.28V496.28Z" fill="#2F2E41"/>
<path d="M133.649 485.378H143.024L147.484 440.086L133.648 440.086L133.649 485.378Z" fill="#A0616A"/>
<path d="M161.104 496.28L131.641 496.282L131.64 482.023L149.72 482.022C152.739 482.022 155.635 483.524 157.77 486.198C159.905 488.872 161.104 492.499 161.104 496.28V496.28V496.28Z" fill="#2F2E41"/>
<path d="M134.795 350.484C135.805 349.67 136.66 348.589 137.3 347.316C137.94 346.043 138.35 344.61 138.501 343.118C138.651 341.626 138.538 340.11 138.17 338.678C137.802 337.246 137.188 335.933 136.371 334.83L142.544 225.107L124.763 227.267L124.275 334.719C122.887 336.561 122.087 338.976 122.026 341.508C121.965 344.039 122.648 346.511 123.944 348.454C125.241 350.397 127.062 351.677 129.062 352.051C131.061 352.425 133.101 351.867 134.795 350.483L134.795 350.484Z" fill="#A0616A"/>
<path d="M169.104 462.566C168.263 462.563 167.452 462.175 166.823 461.476C166.193 460.777 165.79 459.814 165.687 458.768L160.238 401.681C160.161 400.877 159.855 400.135 159.375 399.592C158.896 399.049 158.276 398.742 157.63 398.727C156.983 398.712 156.355 398.99 155.86 399.511C155.365 400.031 155.037 400.759 154.936 401.558L148.072 456.217C147.948 457.234 147.536 458.16 146.912 458.828C146.288 459.497 145.493 459.862 144.673 459.858H133.547C133.092 459.858 132.643 459.745 132.224 459.526C131.805 459.308 131.424 458.987 131.104 458.584C130.784 458.18 130.531 457.701 130.36 457.174C130.189 456.648 130.102 456.084 130.106 455.515L135.416 334.321C135.418 333.289 135.717 332.293 136.258 331.515C136.799 330.737 137.547 330.231 138.362 330.087L179.65 322.58C180.141 322.491 180.641 322.536 181.116 322.711C181.592 322.887 182.031 323.189 182.405 323.597C182.779 324.005 183.078 324.509 183.281 325.075C183.485 325.641 183.589 326.256 183.585 326.876L182.865 457.67C182.859 458.772 182.516 459.83 181.906 460.625C181.297 461.42 180.467 461.892 179.588 461.944L169.268 462.561C169.213 462.565 169.158 462.566 169.104 462.566Z" fill="#2F2E41"/>
<path d="M147.699 338.899C143.727 338.88 139.789 338.002 136.056 336.303C135.423 336.011 134.874 335.491 134.477 334.808C134.08 334.125 133.853 333.311 133.825 332.467C133.468 322.566 131.385 271.605 125.318 240.519C124.139 234.422 124.427 228.023 126.147 222.13C127.866 216.237 130.94 211.114 134.981 207.405C135.307 207.112 135.64 206.823 135.979 206.54C139.488 203.614 143.536 201.862 147.738 201.449C151.94 201.037 156.156 201.978 159.986 204.183C163.943 206.4 167.38 209.849 169.972 214.201C172.564 218.552 174.224 223.662 174.793 229.045L184.686 321.042C184.75 321.617 184.719 322.202 184.597 322.762C184.475 323.322 184.263 323.845 183.974 324.299C183.692 324.751 183.339 325.125 182.938 325.401C182.537 325.676 182.095 325.847 181.639 325.902C178.211 326.33 171.102 327.994 162.002 334.326C157.627 337.362 152.701 338.937 147.699 338.899V338.899Z" fill="#6C63FF"/>
<path d="M135.604 262.641L119.324 257.112C118.444 256.812 117.694 256.086 117.24 255.095C116.787 254.104 116.665 252.927 116.903 251.824L122.626 225.384C123.239 222.552 124.668 220.105 126.636 218.513C128.605 216.922 130.974 216.301 133.287 216.768C135.599 217.235 137.692 218.758 139.162 221.044C140.631 223.329 141.372 226.215 141.243 229.145L139.941 258.718C139.912 259.36 139.77 259.985 139.524 260.548C139.278 261.112 138.935 261.599 138.519 261.975C138.104 262.351 137.626 262.606 137.122 262.721C136.618 262.837 136.099 262.809 135.604 262.641V262.641Z" fill="#6C63FF"/>
<path d="M153.727 191.692C164.1 191.692 172.509 181.159 172.509 168.167C172.509 155.175 164.1 144.643 153.727 144.643C143.355 144.643 134.946 155.175 134.946 168.167C134.946 181.159 143.355 191.692 153.727 191.692Z" fill="#A0616A"/>
<path d="M221.786 214.385C221.692 214.902 221.631 215.427 221.603 215.956L188.755 239.692L180.77 233.935L172.259 247.892L189.339 263.141L226.815 226.11C228.343 226.818 230.007 226.927 231.586 226.422C233.165 225.917 234.584 224.821 235.654 223.281C236.724 221.741 237.394 219.83 237.576 217.801C237.757 215.773 237.441 213.723 236.67 211.925C235.899 210.126 234.709 208.665 233.258 207.734C231.808 206.804 230.165 206.448 228.55 206.715C226.934 206.983 225.421 207.859 224.213 209.23C223.005 210.6 222.159 212.398 221.786 214.385Z" fill="#A0616A"/>
<path d="M186.032 240.838L171.883 252.339C171.117 252.96 170.185 253.175 169.293 252.937C168.401 252.7 167.62 252.028 167.123 251.07L155.217 228.09C153.941 225.629 153.439 222.663 153.806 219.765C154.173 216.867 155.384 214.242 157.205 212.395C159.025 210.549 161.328 209.613 163.667 209.767C166.007 209.921 168.218 211.154 169.874 213.229L186.593 234.175C186.955 234.629 187.232 235.179 187.403 235.784C187.574 236.389 187.635 237.035 187.582 237.674C187.528 238.312 187.361 238.928 187.093 239.475C186.825 240.023 186.462 240.488 186.032 240.838H186.032Z" fill="#6C63FF"/>
<path d="M140.437 186.779C143.94 191.453 150.447 188.944 150.904 182.557C150.94 182.062 150.937 181.563 150.896 181.067C150.66 178.238 149.356 175.67 149.668 172.683C149.739 171.94 149.96 171.231 150.311 170.625C153.103 165.942 159.657 172.72 162.292 168.48C163.907 165.881 162.008 161.788 163.248 158.883C164.884 155.048 169.732 156.94 172.771 154.84C176.153 152.503 175.951 146.004 173.725 142.05C171.01 137.229 166.249 134.657 161.548 134.286C156.847 133.915 152.179 135.507 147.79 137.649C142.804 140.083 137.859 143.447 134.79 148.939C131.058 155.618 130.699 164.597 132.566 172.407C133.701 177.158 137.576 182.961 140.437 186.779Z" fill="#2F2E41"/>
<path d="M292.106 498H0.764676C0.561871 498 0.367372 497.899 0.223968 497.719C0.0805632 497.54 0 497.296 0 497.042C0 496.788 0.0805632 496.545 0.223968 496.365C0.367372 496.185 0.561871 496.084 0.764676 496.084H292.106C292.309 496.084 292.503 496.185 292.647 496.365C292.79 496.545 292.871 496.788 292.871 497.042C292.871 497.296 292.79 497.54 292.647 497.719C292.503 497.899 292.309 498 292.106 498Z" fill="#3F3D56"/>
<path d="M770.793 498H479.452C479.249 498 479.054 497.899 478.911 497.719C478.768 497.54 478.687 497.296 478.687 497.042C478.687 496.788 478.768 496.545 478.911 496.365C479.054 496.185 479.249 496.084 479.452 496.084H770.793C770.996 496.084 771.19 496.185 771.334 496.365C771.477 496.545 771.558 496.788 771.558 497.042C771.558 497.296 771.477 497.54 771.334 497.719C771.19 497.899 770.996 498 770.793 498Z" fill="#3F3D56"/>
<path d="M638.831 317.312C637.796 316.667 636.886 315.745 636.166 314.612C635.446 313.479 634.933 312.162 634.664 310.754C634.394 309.346 634.374 307.88 634.606 306.462C634.837 305.043 635.314 303.705 636.003 302.542L630.089 230.122H642.869L647.569 300.836C649.052 302.415 650.021 304.621 650.293 307.035C650.564 309.449 650.119 311.904 649.042 313.935C647.965 315.966 646.331 317.432 644.449 318.054C642.567 318.676 640.568 318.412 638.831 317.312V317.312Z" fill="#FFB8B8"/>
<path d="M627.097 190.155C637.083 190.155 645.178 180.015 645.178 167.508C645.178 155 637.083 144.861 627.097 144.861C617.111 144.861 609.016 155 609.016 167.508C609.016 180.015 617.111 190.155 627.097 190.155Z" fill="#FFB8B8"/>
<path d="M622.982 272.2L595.997 264.819C595.288 264.624 594.65 264.142 594.18 263.448C593.71 262.755 593.435 261.887 593.396 260.979C593.084 253.437 592.86 233.925 597.499 215.711C598.395 212.219 599.841 208.987 601.751 206.207C603.662 203.427 605.998 201.155 608.621 199.526C611.245 197.897 614.103 196.943 617.026 196.722C619.949 196.5 622.878 197.016 625.64 198.237V198.237C628.554 199.519 631.218 201.559 633.458 204.222C635.699 206.885 637.464 210.111 638.639 213.689C639.814 217.267 640.372 221.115 640.275 224.982C640.179 228.848 639.432 232.646 638.081 236.125C632.097 251.517 628.328 262.663 626.88 269.255C626.655 270.278 626.125 271.153 625.4 271.701C624.675 272.249 623.81 272.428 622.982 272.201V272.2Z" fill="#6C63FF"/>
<path d="M597.561 487.352L588.536 487.351L584.243 443.748H597.563L597.561 487.352Z" fill="#FFB8B8"/>
<path d="M582.089 484.121H599.495V497.848H571.13C571.13 496.045 571.414 494.26 571.964 492.595C572.515 490.929 573.322 489.416 574.34 488.141C575.358 486.867 576.566 485.856 577.895 485.166C579.225 484.476 580.65 484.121 582.089 484.121V484.121Z" fill="#2F2E41"/>
<path d="M687.807 472.7L679.899 478.146L659.364 442.53L671.036 434.492L687.807 472.7Z" fill="#FFB8B8"/>
<path d="M673.007 479.207L688.26 468.703L693.54 480.732L668.684 497.849C667.99 496.269 667.552 494.534 667.394 492.742C667.236 490.95 667.362 489.137 667.763 487.406C668.165 485.675 668.834 484.06 669.734 482.653C670.634 481.246 671.746 480.075 673.007 479.207V479.207Z" fill="#2F2E41"/>
<path d="M597.726 463.138L583.832 461.798C583.054 461.725 582.322 461.311 581.765 460.627C581.208 459.944 580.862 459.036 580.788 458.064C578.808 432.194 570.121 301.101 593.617 260.739L593.683 260.627L593.788 260.578C593.998 260.482 614.953 251.122 626.975 268.274C627.353 268.82 627.61 269.479 627.722 270.186C627.833 270.894 627.796 271.626 627.613 272.31L627.154 274.034C627.023 274.522 626.988 275.043 627.051 275.552C627.115 276.062 627.275 276.544 627.519 276.959C630.855 282.609 642.085 304.368 646.498 347.155C646.526 347.428 646.582 347.695 646.665 347.949L679.25 448.213C679.417 448.725 679.5 449.274 679.495 449.827C679.489 450.379 679.396 450.925 679.22 451.432C679.044 451.939 678.789 452.397 678.47 452.778C678.151 453.16 677.774 453.458 677.361 453.655L667.108 458.548C666.361 458.899 665.539 458.903 664.79 458.559C664.041 458.215 663.416 457.545 663.028 456.672L615.988 349.776C615.801 349.35 615.511 349.01 615.16 348.803C614.809 348.596 614.415 348.533 614.034 348.624C613.653 348.715 613.304 348.954 613.038 349.307C612.772 349.661 612.602 350.11 612.552 350.592L601.265 459.534C601.161 460.533 600.771 461.451 600.167 462.116C599.563 462.781 598.787 463.149 597.983 463.15C597.897 463.15 597.812 463.146 597.726 463.138Z" fill="#2F2E41"/>
<path d="M556.805 193.815C556.896 194.312 556.955 194.818 556.982 195.327L588.605 218.178L596.292 212.635L604.486 226.072L591.64 237.541C590.602 238.467 589.352 238.947 588.078 238.908C586.804 238.869 585.574 238.314 584.574 237.325L551.965 205.102C550.493 205.785 548.89 205.89 547.37 205.403C545.849 204.917 544.483 203.862 543.453 202.38C542.423 200.897 541.777 199.057 541.603 197.103C541.428 195.15 541.732 193.176 542.475 191.445C543.217 189.713 544.363 188.306 545.76 187.41C547.156 186.514 548.738 186.172 550.294 186.429C551.849 186.686 553.306 187.531 554.469 188.85C555.632 190.17 556.447 191.901 556.805 193.815L556.805 193.815Z" fill="#FFB8B8"/>
<path d="M589.04 215.894C589.135 215.31 589.329 214.758 589.61 214.277C589.891 213.795 590.252 213.395 590.667 213.104L605.179 202.941C607.107 201.078 609.547 200.248 611.962 200.634C614.378 201.02 616.573 202.59 618.066 204.999C619.559 207.408 620.229 210.461 619.928 213.488C619.627 216.515 618.381 219.269 616.462 221.146L604.892 236.196C604.561 236.625 604.161 236.96 603.718 237.179C603.275 237.397 602.8 237.493 602.324 237.46C601.849 237.428 601.385 237.267 600.964 236.99C600.542 236.712 600.174 236.324 599.883 235.852L589.662 219.26C589.371 218.788 589.165 218.243 589.057 217.662C588.95 217.081 588.944 216.478 589.04 215.894V215.894Z" fill="#6C63FF"/>
<path d="M626.604 247.229C626.233 246.854 625.932 246.383 625.72 245.849C625.508 245.315 625.391 244.73 625.376 244.134L624.856 223.319C624.422 220.317 624.957 217.222 626.343 214.713C627.729 212.204 629.852 210.486 632.248 209.935C634.643 209.384 637.115 210.046 639.122 211.774C641.129 213.503 642.507 216.158 642.953 219.157L648.291 238.952C648.443 239.517 648.496 240.116 648.447 240.709C648.398 241.302 648.247 241.875 648.005 242.388C647.763 242.902 647.435 243.344 647.045 243.685C646.654 244.025 646.209 244.257 645.741 244.363L629.276 248.086C628.807 248.193 628.326 248.171 627.865 248.023C627.404 247.875 626.973 247.604 626.604 247.229V247.229Z" fill="#6C63FF"/>
<path d="M624.235 162.299C619.588 166.282 613.486 170.378 608.74 166.135C607.255 164.719 606.176 162.739 605.665 160.491C605.154 158.242 605.238 155.847 605.905 153.664C608.178 145.524 614.422 141.94 620.393 139.193C628.155 135.621 636.607 132.78 644.621 135.338C652.634 137.895 659.716 147.613 658.27 157.811C657.106 166.013 650.93 172.837 651.807 181.094C652.689 189.403 660.15 193.777 666.737 195.263C673.324 196.748 680.695 197.225 685.429 203.151C691.468 210.711 689.96 224.224 684.277 232.205C678.595 240.187 670.02 243.805 661.711 246.265C650.702 249.524 638.795 251.236 628.34 245.828C617.884 240.42 609.748 225.861 612.776 212.209C614.056 206.443 617.07 201.569 619.982 196.825C622.895 192.08 625.844 187.119 626.956 181.298C627.881 176.447 627.196 170.815 624.628 167.177C624.161 166.54 623.867 165.734 623.788 164.875C623.71 164.016 623.85 163.147 624.19 162.394L624.235 162.299Z" fill="#2F2E41"/>
</g>
<defs>
<clipPath id="clip0_70_256">
<rect width="776" height="498" fill="white"/>
</clipPath>
</defs>
</svg>
